<?xml version="1.0" encoding="UTF-8" standalone="no"?>
<!-- Created with Inkscape (http://www.inkscape.org/) -->

<svg
   xmlns:dc="http://purl.org/dc/elements/1.1/"
   xmlns:cc="http://creativecommons.org/ns#"
   xmlns:rdf="http://www.w3.org/1999/02/22-rdf-syntax-ns#"
   xmlns:svg="http://www.w3.org/2000/svg"
   xmlns="http://www.w3.org/2000/svg"
   xmlns:sodipodi="http://sodipodi.sourceforge.net/DTD/sodipodi-0.dtd"
   xmlns:inkscape="http://www.inkscape.org/namespaces/inkscape"
   width="210mm"
   height="297mm"
   viewBox="0 0 744.09448819 1052.3622047"
   id="svg2"
   version="1.1"
   inkscape:version="0.91 r13725"
   sodipodi:docname="logo.svg">
  <sodipodi:namedview
     id="base"
     pagecolor="#ffffff"
     bordercolor="#666666"
     borderopacity="1.0"
     inkscape:pageopacity="0.0"
     inkscape:pageshadow="2"
     inkscape:zoom="0.98994949"
     inkscape:cx="489.2684"
     inkscape:cy="563.76123"
     inkscape:document-units="px"
     inkscape:current-layer="layer1"
     showgrid="false"
     inkscape:window-width="1920"
     inkscape:window-height="1058"
     inkscape:window-x="-8"
     inkscape:window-y="424"
     inkscape:window-maximized="1" />
  <defs
     id="defs4" />
  <metadata
     id="metadata7">
    <rdf:RDF>
      <cc:Work
         rdf:about="">
        <dc:format>image/svg+xml</dc:format>
        <dc:type
           rdf:resource="http://purl.org/dc/dcmitype/StillImage" />
        <dc:title />
      </cc:Work>
    </rdf:RDF>
  </metadata>
  <g
     inkscape:label="Layer 1"
     inkscape:groupmode="layer"
     id="layer1">
    <rect
       style="fill:#000000;stroke:#000000;stroke-width:1.33136201;stroke-miterlimit:4;stroke-dasharray:none"
       id="rect4537-2"
       width="639.09534"
       height="61.287834"
       x="98.008286"
       y="541.64331"
       inkscape:export-xdpi="90"
       inkscape:export-ydpi="90" />
    <circle
       style="fill:#ffffff;stroke:#000000;stroke-width:7.38602257;stroke-miterlimit:4;stroke-dasharray:none"
       id="path4539-5"
       cx="413.53241"
       cy="572.7923"
       r="98.526802"
       inkscape:export-xdpi="90"
       inkscape:export-ydpi="90" />
    <rect
       style="fill:#000000;stroke:#000000;stroke-width:1.02738822"
       id="rect4537"
       width="208.06419"
       height="112.09946"
       x="231.46048"
       y="951.36072" />
    <circle
       style="fill:#ffffff;stroke:#000000;stroke-width:1.26516163"
       id="path4539"
       cx="992.47485"
       cy="342.98251"
       r="168.0578" />
    <text
       xml:space="preserve"
       style="font-style:normal;font-weight:normal;font-size:40px;line-height:125%;font-family:Sans;letter-spacing:0px;word-spacing:0px;fill:#ffffff;fill-opacity:1;stroke:none;stroke-width:1px;stroke-linecap:butt;stroke-linejoin:miter;stroke-opacity:1"
       x="343.96201"
       y="1028.5188"
       id="text4541"
       sodipodi:linespacing="125%"><tspan
         sodipodi:role="line"
         id="tspan4543"
         x="343.96201"
         y="1028.5188"
         style="font-style:normal;font-variant:normal;font-weight:normal;font-stretch:normal;font-family:'Old English Text MT';-inkscape-font-specification:'Old English Text MT'">Wissenkraft</tspan></text>
    <text
       xml:space="preserve"
       style="font-style:normal;font-weight:normal;font-size:39.49391556px;line-height:125%;font-family:Sans;letter-spacing:0px;word-spacing:0px;fill:#ffffff;fill-opacity:1;stroke:none;stroke-width:1px;stroke-linecap:butt;stroke-linejoin:miter;stroke-opacity:1"
       x="242.69217"
       y="969.48059"
       id="text4545"
       sodipodi:linespacing="125%"
       transform="scale(0.97541562,1.025204)"><tspan
         sodipodi:role="line"
         id="tspan4547"
         x="242.69217"
         y="969.48059"
         style="font-style:normal;font-variant:normal;font-weight:normal;font-stretch:normal;font-family:'Old English Text MT';-inkscape-font-specification:'Old English Text MT'">Bierwerks</tspan><tspan
         sodipodi:role="line"
         x="242.69217"
         y="1018.848"
         style="font-style:normal;font-variant:normal;font-weight:normal;font-stretch:normal;font-family:'Old English Text MT';-inkscape-font-specification:'Old English Text MT'"
         id="tspan4222">Brewery</tspan></text>
    <path
       style="fill:#000000;stroke:#000000;stroke-width:0.66272074"
       d="m 382.35423,500.21137 -7.26145,1.04326 -1.6568,9.1163 0.12037,0.69896 2.19138,7.41678 -9.70782,4.43323 -4.16919,-6.5133 -0.45044,-0.54752 -7.97336,-4.7193 -5.54381,4.80473 3.53494,8.5636 0.47892,0.52421 5.85317,5.05325 -5.77033,8.97909 -7.02846,-3.22559 -0.67567,-0.21874 -9.25868,0.343 -2.06711,7.03883 7.60446,5.2927 0.68602,0.18251 7.65753,1.08598 0,10.67343 -7.65753,1.08598 -0.68602,0.18251 -7.60446,5.2927 2.06711,7.03882 9.25868,0.34301 0.67567,-0.21875 7.02846,-3.22559 5.77033,8.97909 -5.85317,5.05325 -0.47892,0.52422 -3.53494,8.56359 5.54381,4.80473 7.97336,-4.7193 0.45044,-0.54882 4.16919,-6.512 9.70782,4.43324 -2.19138,7.41677 -0.12037,0.69897 1.6568,9.11629 7.26145,1.04327 4.15754,-8.28012 0.0815,-0.70415 -0.0143,-7.7326 10.56471,-1.5196 2.16549,7.42325 0.27699,0.65366 6.32174,6.77347 6.6738,-3.04696 -0.97984,-9.21467 -0.31195,-0.63683 -4.19248,-6.49777 8.06655,-6.98963 5.83505,5.07525 0.58636,0.39996 8.97908,2.28069 3.96726,-6.17288 -5.80527,-7.22003 -0.60706,-0.3689 -7.04012,-3.1997 3.00684,-10.23981 7.65235,1.11446 0.70932,0.0194 8.78752,-2.93694 0,-7.33653 -8.78752,-2.93694 -0.70932,0.0194 -7.65235,1.11446 -3.00684,-10.2411 7.04012,-3.1984 0.60706,-0.3689 5.80527,-7.22004 -3.96726,-6.17288 -8.97908,2.2807 -0.58636,0.39995 -5.83505,5.07526 -8.06655,-6.98964 4.19248,-6.49777 0.31195,-0.63683 0.97984,-9.21466 -6.6738,-3.04697 -6.32174,6.77348 -0.27699,0.65365 -2.16549,7.42326 -10.56471,-1.5196 0.0143,-7.73261 -0.0815,-0.70414 -4.15754,-8.28012 z m 4.72188,43.97773 a 10.711184,10.711184 0 0 1 10.71097,10.71096 10.711184,10.711184 0 0 1 -10.71097,10.71097 10.711184,10.711184 0 0 1 -10.71096,-10.71097 10.711184,10.711184 0 0 1 10.71096,-10.71096 z"
       id="path3547"
       inkscape:connector-curvature="0"
       inkscape:export-xdpi="90"
       inkscape:export-ydpi="90" />
    <path
       style="fill:#000000;stroke:#000000;stroke-width:0.66272074"
       d="m 460.28295,558.07449 -4.85148,8.18346 -0.0565,0.51243 0.0623,7.92489 -9.58771,1.96847 -3.06379,-7.30863 -0.25479,-0.44978 -7.68168,-5.60902 -5.57807,3.77667 2.35522,9.21532 0.323,0.40361 5.6482,5.55884 -5.38846,8.17233 -7.33478,-3.00213 -0.49804,-0.13809 -9.39863,1.46575 -1.27372,6.61443 8.18195,4.8525 0.51394,0.0555 7.92489,-0.0623 1.96848,9.58771 -7.30887,3.06505 -0.44954,0.25353 -5.60926,7.68295 3.77666,5.57807 9.21533,-2.35522 0.4036,-0.323 5.55884,-5.6482 8.17106,5.38822 -3.00086,7.33503 -0.13784,0.49677 1.46575,9.39862 6.61442,1.27372 4.85123,-8.18219 0.0565,-0.51243 -0.0623,-7.92489 9.58771,-1.96848 3.06506,7.30887 0.25351,0.44954 7.68169,5.60902 5.57935,-3.77643 -2.35625,-9.21683 -0.32198,-0.40209 -5.64795,-5.56011 5.38822,-8.17106 7.33375,3.00062 0.4978,0.13936 9.39887,-1.46703 1.27372,-6.61442 -8.18219,-4.85123 -0.5137,-0.0567 -7.92387,0.0638 -1.96823,-9.58898 7.30863,-3.06379 0.44851,-0.25503 5.61029,-7.68144 -3.77794,-5.57832 -9.21533,2.35522 -0.40232,0.32324 -5.56012,5.64796 -8.17106,-5.38822 3.00087,-7.33502 0.13784,-0.49677 -1.46552,-9.3999 -6.61442,-1.27371 z m -3.41797,35.56081 a 6.4903414,6.4903414 0 0 1 5.14571,7.60012 6.4903414,6.4903414 0 0 1 -7.60038,5.14699 6.4903414,6.4903414 0 0 1 -5.14546,-7.6014 6.4903414,6.4903414 0 0 1 7.60013,-5.14571 z"
       id="path3724"
       inkscape:connector-curvature="0"
       inkscape:export-xdpi="90"
       inkscape:export-ydpi="90" />
    <circle
       style="fill:#000000;stroke:#000000;stroke-width:0.72757673"
       id="path4199"
       cx="334.3605"
       cy="867.50433"
       r="106.20222" />
    <g
       id="g4196"
       style="fill:#ffffff"
       transform="translate(5.0507608,-7.0710675)">
      <path
         id="path3547-1"
         d="m 322.18555,793.06445 -10.95703,1.57422 -2.5,13.75391 0.18164,1.05664 3.30664,11.18945 -14.64844,6.69141 -6.29102,-9.82813 -0.67968,-0.82812 -12.03125,-7.11914 -8.36719,7.24804 5.33398,12.92383 0.72266,0.79102 8.83203,7.625 -8.70508,13.54883 -10.60547,-4.86719 -1.01953,-0.33008 -13.9707,0.51563 -3.11914,10.62109 11.47461,7.98828 1.03515,0.27344 11.55274,1.64062 0,16.10352 -11.55274,1.64062 -1.03515,0.27344 -11.47461,7.98828 3.11914,10.6211 13.9707,0.51562 1.01953,-0.33008 10.60547,-4.86523 8.70508,13.54883 -8.83203,7.625 -0.72266,0.79101 -5.33398,12.92188 8.36719,7.25 12.03125,-7.1211 0.67968,-0.82812 6.29102,-9.82617 14.64844,6.68945 -3.30664,11.18945 -0.18164,1.05664 2.5,13.75586 10.95703,1.57422 6.27148,-12.49414 0.125,-1.06445 -0.0215,-11.66797 15.93945,-2.29102 3.26953,11.20118 0.41797,0.98632 9.53906,10.22071 10.06836,-4.59766 -1.47656,-13.9043 -0.4707,-0.96093 -6.32618,-9.80469 12.16993,-10.54688 8.80468,7.65625 0.88477,0.60547 13.55078,3.43946 5.98438,-9.3125 -8.75782,-10.89649 -0.91797,-0.55469 -10.62109,-4.82812 4.53711,-15.45117 11.54687,1.68164 1.07032,0.0273 13.25976,-4.42969 0,-11.07031 -13.25976,-4.43164 -1.07032,0.0293 -11.54687,1.68164 -4.53711,-15.45313 10.62109,-4.82812 0.91797,-0.55469 8.75782,-10.89648 -5.98438,-9.3125 -13.55078,3.4414 -0.88477,0.60352 -8.80468,7.6582 -12.16993,-10.54687 6.32618,-9.80469 0.4707,-0.96289 1.47656,-13.90235 -10.06836,-4.59765 -9.53906,10.21875 -0.41797,0.98633 -3.26953,11.20312 -15.93945,-2.29297 0.0215,-11.66797 -0.125,-1.06445 -6.27148,-12.49219 z m 7.125,66.35938 a 16.162441,16.162441 0 0 1 16.16211,16.16211 16.162441,16.162441 0 0 1 -16.16211,16.16211 16.162441,16.162441 0 0 1 -16.16407,-16.16211 16.162441,16.162441 0 0 1 16.16407,-16.16211 z"
         style="fill:#ffffff;stroke:#000000"
         inkscape:connector-curvature="0" />
    </g>
    <text
       xml:space="preserve"
       style="font-style:normal;font-weight:normal;font-size:40px;line-height:125%;font-family:Sans;letter-spacing:0px;word-spacing:0px;fill:#ffffff;fill-opacity:1;stroke:none;stroke-width:1px;stroke-linecap:butt;stroke-linejoin:miter;stroke-opacity:1"
       x="107.20974"
       y="583.09894"
       id="text4216"
       sodipodi:linespacing="125%"
       inkscape:export-xdpi="90"
       inkscape:export-ydpi="90"><tspan
         sodipodi:role="line"
         id="tspan4218"
         x="107.20974"
         y="583.09894"
         style="font-style:normal;font-variant:normal;font-weight:normal;font-stretch:normal;font-family:'Old English Text MT';-inkscape-font-specification:'Old English Text MT'">Wissenkraft</tspan></text>
    <path
       style="fill:#000000;stroke:#000000;stroke-width:1.41302586"
       d="m 63.639116,-183.05354 0,383.85742 847.517584,0 0,-383.85742 -847.517584,0 z m 396.865234,49.31836 A 148.67017,148.67017 0 0 1 605.8149,-15.666825 l 221.29297,0 0,61.20508 -221.16797,0 A 148.67017,148.67017 0 0 1 460.50435,163.60661 148.67017,148.67017 0 0 1 315.19381,45.538255 l -208.92189,0 0,-61.20508 208.79689,0 A 148.67017,148.67017 0 0 1 460.50435,-133.73518 Z M 315.06881,-15.666825 a 148.67017,148.67017 0 0 0 -3.23438,30.60156 148.67017,148.67017 0 0 0 3.35938,30.60352 l 46.76757,0 4.84766,-11.74219 0.72266,-0.79102 8.83203,-7.625 -8.70703,-13.54883 -10.60547,4.86719 -1.01953,0.33008 -13.97071,-0.51758 -3.11914,-10.6210899 11.47461,-7.98633 1.03516,-0.27539 11.55469,-1.63867 0,-11.6562501 -47.9375,0 z m 47.9375,0 41.83789,0 a 16.162441,16.162441 0 0 1 15.74023,-12.5586 16.162441,16.162441 0 0 1 15.73438,12.5586 l 65.98828,0 0,-1.93164 -13.25977,-4.43164 -1.07031,0.0293 -11.54688,1.68164 -4.53711,-15.45312 10.62305,-4.82617 0.91602,-0.55664 8.75976,-10.89453 -5.98633,-9.31445 -13.54882,3.44141 -0.88477,0.60351 -8.80469,7.65821 -12.17187,-10.54688 6.32617,-9.80469 0.4707,-0.96093 1.47852,-13.9043 -10.07031,-4.59766 -9.53907,10.22071 -0.41796,0.98632 -3.26758,11.20118 -15.94141,-2.29297 0.0215,-11.66797 -0.12305,-1.0625 -6.27344,-12.49414 -10.95703,1.57422 -2.5,13.75586 0.18164,1.05468 3.30664,11.19141 -14.64844,6.68945 -6.29101,-9.82812 -0.67969,-0.82617 -12.03125,-7.1211 -8.36523,7.25 5.33398,12.92188 0.72266,0.79101 8.83203,7.625 -8.70703,13.54882 -10.60547,-4.86719 -1.01953,-0.33007 -13.97071,0.51757 -3.11914,10.6211 11.47461,7.98633 1.03516,0.27539 11.55469,1.63867 0,4.44922 z m 139.30078,0 0,9.1386701 -13.25977,4.43164 -1.07031,-0.0293 -11.54688,-1.68164 -4.53711,15.4511699 10.62305,4.82813 0.91602,0.55664 8.75976,10.89453 -5.98633,9.31445 -13.54882,-3.4414 -0.88477,-0.60352 -8.80469,-7.6582 -12.17187,10.54687 6.10156,9.45704 4.5332,0 1.25586,-6.5254 14.18164,-2.21289 0.75196,0.20899 11.0664,4.5293 8.13086,-12.33008 -8.52148,-8.38868 -0.48828,-0.60937 -3.55469,-13.9042999 8.41797,-5.69922005 11.59179,8.46289005 0.38282,0.67969 4.62304,11.0273499 14.46875,-2.96875 -0.0957,-11.9589899 0.0859,-0.77344 7.32031,-12.34765 9.98047,1.92187 2.21289,14.1836 -0.20898,0.75 -4.52735,11.0683599 12.32813,8.1289 8.39062,-8.52148 0.60742,-0.48828 13.9043,-3.55274 5.70117,8.41602 -8.46484,11.5918 -0.67773,0.38476 -11.02735,4.62305 0.88281,4.30469 45.79102,0 a 148.67017,148.67017 0 0 0 3.23437,-30.60352 148.67017,148.67017 0 0 0 -3.35937,-30.60156 l -103.50781,0 z m 57.84179,61.20508 -98.71875,0 -0.66601,3.45507 12.3457,7.32227 0.77539,0.084 11.95703,-0.0937 2.97071,14.4668 -11.02735,4.625 -0.67968,0.38281 -8.4629,11.5918 5.69727,8.41797 13.90625,-3.55469 0.60938,-0.48633 8.38671,-8.52343 12.33008,8.13085 -4.52734,11.068365 -0.20899,0.74805 2.21289,14.18359 9.98047,1.92188 7.32032,-12.34766 0.084,-0.77343 -0.0937,-11.957045 14.4668,-2.9707 4.625,11.029305 0.38281,0.67773 11.5918,8.46289 8.41796,-5.69726 -3.55468,-13.908215 -0.48633,-0.60742 -8.52149,-8.38867 8.13086,-12.33008 11.06446,4.52735 0.75195,0.21093 14.18164,-2.21289 1.92188,-9.98242 -12.34571,-7.31836 -0.77539,-0.0859 -11.95703,0.0957 -2.08594,-10.16406 z m -103.25195,0 -20.36328,0 2.50977,8.60351 0.41796,0.98633 9.53907,10.2207 10.07031,-4.59765 -1.47852,-13.9043 -0.4707,-0.96094 -0.22461,-0.34765 z m -20.36328,0 -0.75781,-2.59766 -15.94141,2.29297 0,0.30469 16.69922,0 z m -16.69922,0 -17.12891,0 -2.52148,8.53515 -0.18164,1.05469 2.5,13.75586 10.95703,1.57422 6.27344,-12.49414 0.12305,-1.0625 -0.0215,-11.36328 z m -17.12891,0 0.78516,-2.65626 -14.64844,-6.68945 -5.98437,9.34571 19.84765,0 z m -19.84765,0 -20.89649,0 -0.48632,1.17968 8.36523,7.25 12.03125,-7.12109 0.67969,-0.82813 0.30664,-0.48046 z m 53.46094,-61.20508 -31.47461,0 a 16.162441,16.162441 0 0 0 -0.42188,3.60351 16.162441,16.162441 0 0 0 16.16211,16.1621101 16.162441,16.162441 0 0 0 16.16211,-16.1621101 16.162441,16.162441 0 0 0 -0.42773,-3.60351 z m 200.06835,13.8437501 c -0.91145,0 -1.77734,0.24739 -2.59765,0.74218 -0.82031,0.48177995 -1.43229,1.12630995 -1.83594,1.93359995 -0.39062,0.79427005 -0.60547,1.78385005 -0.64453,2.96875005 l 0.74219,0 c 0.13021,-1.01563 0.39713,-1.71875 0.80078,-2.10938 0.40364,-0.40364 0.89844,-0.60547 1.48437,-0.60547 0.3125,0 0.83985,0.0846 1.58204,0.25391 1.28906,0.3125 2.33072,0.46875 3.125,0.46875 1.23697,0 2.74739,-0.29297 4.53124,-0.87891005 -1.88802,1.23698005 -3.17057,2.20704005 -3.84765,2.91016005 -0.67708,0.6901 -1.15886,1.45833 -1.44531,2.30469 -0.28646,0.83333 -0.45573,2.16797 -0.50782,4.0038999 -0.71614,-0.0781 -1.3151,-0.11718 -1.79687,-0.11718 -1.30208,0 -2.3763,0.37109 -3.22266,1.11328 -0.83333,0.74219 -1.3151,1.73828 -1.44531,2.98828 l 0.74219,0.25391 c 0.29948,-0.61198 0.59896,-1.01563 0.89843,-1.21094 0.5599,-0.37761 1.20443,-0.56641 1.9336,-0.56641 1.17187,0 2.04427,0.46224 2.61719,1.38672 0.36458,0.57292 0.55338,1.4974 0.5664,2.77344 -0.29948,-0.013 -0.52083,-0.0195 -0.66406,-0.0195 -1.22396,0 -2.20703,0.35156 -2.94922,1.05468 -0.72917,0.70313 -1.09375,1.60157 -1.09375,2.69532 0,0.11718 0.007,0.29948 0.0195,0.54687 l 0.70313,0 c 0.11718,-0.6901 0.34505,-1.18489 0.68359,-1.48437 0.33854,-0.29948 0.77474,-0.44922 1.30859,-0.44922 0.58594,0 1.06771,0.1888 1.44532,0.5664 0.39062,0.36459 0.58594,0.83334 0.58594,1.40625 0,0.48178 -0.16928,1.00261 -0.50782,1.5625 -0.32552,0.5599 -1.08724,1.44532 -2.28515,2.65625 -1.1849,1.21094 -1.95964,2.13542 -2.32422,2.77344 -0.35157,0.65104 -0.52735,1.23047 -0.52735,1.73828 0,0.54688 0.14323,0.98959 0.42969,1.32813 0.29948,0.35156 0.63151,0.52734 0.99609,0.52734 0.23438,0 0.44922,-0.0976 0.64454,-0.29297 0.19531,-0.19531 0.29296,-0.42317 0.29296,-0.68359 0,-0.27344 -0.13671,-0.64453 -0.41015,-1.11328 -0.26042,-0.45573 -0.39063,-0.80078 -0.39063,-1.03516 0,-0.625 0.46875,-1.25 1.40625,-1.875 1.39323,-0.9375 3.24219,-1.40625 5.54688,-1.40625 1.875,0 3.63281,0.27344 5.27344,0.82031 1.01562,0.32553 2.08984,0.87891 3.22265,1.66016 3.26823,-2.70833 7.22005,-4.32292 11.85547,-4.84375 l 0,-6.71875 c 0,-1.52344 -0.16276,-2.61068 -0.48828,-3.26172 -0.32552,-0.65104 -0.89844,-1.18489 -1.71875,-1.60156 -0.80729,-0.41667 -2.08333,-0.70313 -3.82812,-0.85938 2.04427,-1.5494699 3.44401,-2.8841099 4.19921,-4.0038999 0.76823,-1.13281 1.15235,-2.22656 1.15235,-3.28125 0,-1.28906 -0.48828,-2.42839005 -1.46485,-3.41797005 -0.6901,-0.70313 -1.71224,-1.23697995 -3.0664,-1.60155995 -4.23177,1.28905995 -6.97917,2.33072995 -8.24219,3.125 -1.25,0.78125 -2.10938,1.72526 -2.57812,2.83203 -0.46876,1.09375 -0.70313,2.98177 -0.70313,5.66406 l 0,5.7617199 c 0,2.17448 -0.39714,3.82161 -1.19141,4.94141 -0.79427,1.11979 -2.34375,2.16796 -4.64843,3.14453 1.18489,-1.25 1.97265,-2.36328 2.36328,-3.33985 0.39062,-0.97656 0.58593,-2.34375 0.58593,-4.10156 l 0,-8.0273399 c 0,-2.14844 0.46224,-3.86719 1.38672,-5.15625 0.9375,-1.30209 2.8125,-2.63672005 5.625,-4.00391005 l -0.39062,-0.83983995 c -1.09375,0.46875 -1.97917,0.78125 -2.65625,0.93749995 -0.66406,0.15625 -1.35417,0.23437 -2.07031,0.23437 -0.97657,0 -2.25261,-0.19531 -3.82813,-0.58593995 -1.57552,-0.39062 -2.70182,-0.58593 -3.37891,-0.58593 z m 138.84766,1.60155995 c -0.97656,0.10417 -1.84896,0.34505 -2.61719,0.72266 -0.7552,0.36458 -1.55599,0.95052005 -2.40234,1.75781005 -0.58594,-0.54688 -1.08073,-0.9375 -1.48437,-1.17188 -0.39063,-0.24739005 -0.97657,-0.51432005 -1.75782,-0.80078005 l -0.29297,0.56641 c 0.625,0.29948005 1.07422,0.63151005 1.34766,0.99609005 0.28646,0.35156 0.5013,0.85287 0.64453,1.50391 0.10417,0.44271 0.15625,1.22396 0.15625,2.34375 l 0,14.1992199 c 0,1.75781 -0.0846,2.85807 -0.25391,3.30078 -0.16927,0.42969 -0.55338,0.84635 -1.15234,1.25 l 0,0.37109 c 1.09375,0.35156 2.00521,0.74219 2.73438,1.17188 0.74218,0.42968 1.51041,1.02213 2.30468,1.77734 l 5.52735,-4.41406 c 0.13021,1.17187 0.32552,2.0638 0.58593,2.67578 0.26042,0.61198 0.65756,1.19141 1.19141,1.73828 l 4.55078,-3.32031 -0.37109,-0.625 c -0.70313,0.53385 -1.13281,0.80078 -1.28906,0.80078 -0.14323,0 -0.29948,-0.1237 -0.46875,-0.37109 -0.16927,-0.2474 -0.39714,-1.19141 -0.6836,-2.83204 -0.28646,-1.65364 -0.6901,-2.90364 -1.21093,-3.75 -0.50782,-0.85937 -1.27605,-1.65364 -2.30469,-2.38281 l 4.53125,-3.96484 -3.96485,-4.3749999 -5.82031,5.6445299 0,-6.7382799 c 0,-1.61459 0.16927,-2.77995 0.50781,-3.4961 0.33855,-0.72916 1.00261,-1.41927005 1.99219,-2.07031005 l 0,-0.50781 z m -122.5,0.29297 c 1.39323,0.61198 2.42188,1.31510005 3.08594,2.10937005 0.67708,0.78125 1.01562,1.71875 1.01562,2.8125 0,1.32813 -0.42968,2.56511 -1.28906,3.71094 -0.85937,1.13281 -2.1875,2.2395799 -3.98437,3.3203099 l 0,-5.0781199 -0.85938,0 0,16.2695299 c -1.60156,-0.49479 -3.30078,-0.74219 -5.09765,-0.74219 -1.05469,0 -2.19402,0.0911 -3.41797,0.27344 2.26562,-1.32813 3.76953,-2.33724 4.51171,-3.02734 0.74219,-0.70313 1.24349,-1.41276 1.50391,-2.12891 0.26042,-0.72917 0.39063,-1.8099 0.39063,-3.24219 l 0,-8.0078099 c 0,-1.44531 0.0911,-2.46745 0.27343,-3.06641 0.19532,-0.61198 0.53386,-1.13932 1.01563,-1.58203 0.49479,-0.44271 1.44531,-0.98307005 2.85156,-1.62109005 z m -540.43555,0.0684 c -1.30209,0 -2.33073,0.5013 -3.08594,1.50390005 -0.74219,1.00261 -1.15885,2.40886 -1.25,4.21875 l 0.70313,0.19532 c 0.18229,-1.19792 0.45572,-1.9987 0.82031,-2.40235 0.36458,-0.40364 0.78125,-0.60547 1.25,-0.60547 0.98958,0 1.86198,0.63151 2.61719,1.89453 1.51041,2.5 2.30468,6.1002699 2.38281,10.8007899 -0.52084,-0.50782 -1.04167,-0.88542 -1.5625,-1.13282 -0.50781,-0.24739 -1.00912,-0.37109 -1.50391,-0.37109 -1.48437,0 -2.59765,0.76172 -3.33984,2.28516 l 0.5664,0.42968 c 0.57292,-0.4427 1.12631,-0.66406 1.66016,-0.66406 0.91146,0 1.73828,0.41016 2.48047,1.23047 0.74219,0.80729 1.11328,1.84245 1.11328,3.10547 0,2.1875 -1.03516,5.07812 -3.10547,8.67187 l 0.56641,0.42969 c 1.26302,-0.74219 2.32422,-1.24349 3.18359,-1.5039 0.8724,-0.27344 1.8099,-0.41016 2.8125,-0.41016 1.01563,0 1.88802,0.16927 2.61719,0.50781 0.54687,0.2474 1.1263,0.71615 1.73828,1.40625 1.64063,-0.80729 2.92969,-1.34766 3.86719,-1.62109 0.95052,-0.28646 1.84896,-0.42969 2.69531,-0.42969 0.625,0 1.28255,0.16276 1.97266,0.48828 0.70312,0.3125 1.36067,0.83333 1.97265,1.5625 3.19011,-2.89062 5.61849,-5.36458 7.28516,-7.42187 1.66667,-2.0573 2.94271,-4.23829 3.82812,-6.54297 0.54688,-1.41927 0.82032,-2.96875 0.82032,-4.64844 0,-1.6666699 -0.32552,-3.3723999 -0.97657,-5.1171899 -0.65104,-1.74479 -1.73177,-3.69791 -3.24218,-5.85937005 l -9.53125,6.32812005 c -1.05469,-2.63021 -2.22006,-4.73958 -3.4961,-6.32812005 l -9.45312,6.32812005 c -0.74219,-2.23958 -1.69922,-3.85416 -2.8711,-4.84375 -1.15885,-0.98958005 -2.33724,-1.48437005 -3.53515,-1.48437005 z m 557.83789,0.12695 -0.99609,4.21875005 0.78125,0 2.69531,-4.21875005 -2.48047,0 z m 42.2461,1.19141005 c -1.70573,0.83333 -2.89714,1.66666 -3.57422,2.5 -0.67708,0.82031 -1.01562,1.77734 -1.01562,2.87109 0,0.59896 0.0977,1.13281 0.29296,1.60156 0.19532,0.45573 0.57292,1.00912 1.13282,1.6601599 0.35156,0.40365 0.55989,0.73568 0.625,0.99609 0.0781,0.2474 0.11718,0.95052 0.11718,2.10938 l 0,7.40234 c 0,1.26302 -0.12369,2.11589 -0.37109,2.5586 -0.23437,0.42968 -0.64453,0.76171 -1.23047,0.99609 l 0,0.46875 c 1.39323,0.0781 2.67578,0.35807 3.84766,0.83984 1.18489,0.46875 2.42187,1.23698 3.71094,2.30469 1.3802,-1.39323 2.76041,-2.08984 4.14062,-2.08984 1.47135,0 3.30729,0.69661 5.50781,2.08984 0.96354,-0.84635 1.91407,-1.52995 2.85157,-2.05078 0.9375,-0.52083 2.08984,-0.99609 3.45703,-1.42578 l 0,-11.83594 c 0,-1.21094 -0.25391,-2.27213 -0.76172,-3.1835899 -0.36459,-0.67709 -1.15235,-1.45183 -2.36328,-2.32422 l -5.80079,4.7070299 c -0.1302,-0.96354 -0.44921,-1.8164099 -0.95703,-2.5585899 -0.49479,-0.74219 -1.26302,-1.45834 -2.30468,-2.14844 l -5.6836,4.5898399 c -0.0651,-0.87239 -0.1888,-1.5429699 -0.37109,-2.0117199 -0.3125,-0.78125 -0.76172,-1.49088 -1.34766,-2.1289 -0.87239,-0.96354 -1.34765,-1.51693 -1.42578,-1.66016 -0.15625,-0.28646 -0.23437,-0.59245 -0.23437,-0.91797 0,-0.92448 0.70312,-1.875 2.10937,-2.85156 l -0.35156,-0.50781 z m -471.74415,0.2832 c -0.97656,0.10417 -1.84896,0.34505 -2.61719,0.72266 -0.75521,0.36458 -1.55599,0.95052 -2.40234,1.75781 -0.58594,-0.54688 -1.08073,-0.9375 -1.48438,-1.17188 -0.39062,-0.24739 -0.97656,-0.51432 -1.75781,-0.80078 l -0.29297,0.56641 c 0.625,0.29948 1.07422,0.63151 1.34766,0.99609 0.28646,0.35157 0.5013,0.85287 0.64453,1.50391 0.10416,0.44271 0.15625,1.22396 0.15625,2.34375 l 0,14.1992199 c 0,1.75781 -0.0846,2.85807 -0.25391,3.30078 -0.16927,0.42969 -0.55338,0.84635 -1.15234,1.25 l 0,0.37109 c 1.09375,0.35156 2.00521,0.74219 2.73437,1.17188 0.74219,0.42968 1.51042,1.02213 2.30469,1.77734 l 5.52734,-4.41406 c 0.13021,1.17187 0.32553,2.0638 0.58594,2.67578 0.26042,0.61198 0.65755,1.19141 1.19141,1.73828 l 4.55078,-3.32031 -0.37109,-0.625 c -0.70313,0.53385 -1.13282,0.80078 -1.28907,0.80078 -0.14323,0 -0.29948,-0.1237 -0.46875,-0.37109 -0.16927,-0.2474 -0.39713,-1.19141 -0.68359,-2.83204 -0.28646,-1.65364 -0.6901,-2.90364 -1.21094,-3.75 -0.50781,-0.85937 -1.27604,-1.65364 -2.30469,-2.38281 l 4.53125,-3.96484 -3.96484,-4.3749999 -5.82031,5.6445299 0,-6.7382799 c 0,-1.61458 0.16927,-2.77995 0.50781,-3.4961 0.33854,-0.72916 1.0026,-1.41927 1.99219,-2.07031 l 0,-0.50781 z m 50.41016,0 c -0.98958,0.91146 -2.46093,2.03125 -4.41406,3.35938 l 0,4.70703 -1.83594,0 0,2.1874999 1.83594,0 0,11.42578 c 0,0.75521 -0.15625,1.39974 -0.46875,1.93359 -0.18229,0.32552 -0.50781,0.63802 -0.97656,0.9375 l 0.11719,0.46875 c 1.69271,0.52083 3.33984,1.51042 4.9414,2.96875 l 4.53125,-3.65234 -0.44922,-0.54688 -1.52343,1.23047 -2.20703,-1.66015 0,-13.10547 3.02734,0 0,-2.1874999 -3.02734,0 0,-4.70703 3.57421,0.83984 0.60547,-3.26172 -3.73047,-0.9375 z m -137.46094,0.48828 -0.99609,4.21875 0.78125,0 2.69531,-4.21875 -2.48047,0 z m -28.28125,0.85938 c 0.98958,1.60156 1.69922,2.97526 2.12891,4.12109 0.4427,1.13281 0.80078,2.50651 1.07422,4.1210899 -0.95053,0.53386 -1.75782,0.89844 -2.42188,1.09375 -0.65104,0.1823 -1.34766,0.27344 -2.08984,0.27344 -0.74219,0 -1.4323,-0.0911 -2.07032,-0.27344 -0.63802,-0.19531 -1.41927,-0.55989 -2.34375,-1.09375 -0.10416,-1.4583299 -0.31901,-2.7734299 -0.64453,-3.9453099 l 6.36719,-4.29687 z m 12.91016,0.0391 c 0.96354,1.6276 1.71875,3.22266 2.26562,4.78516 0.35156,1.01562 0.58594,2.1549399 0.70313,3.4179599 -0.88542,0.46875 -1.64063,0.79427 -2.26563,0.97657 -0.625,0.16927 -1.28906,0.2539 -1.99219,0.2539 -0.6901,0 -1.33463,-0.0781 -1.93359,-0.23437 -0.59896,-0.16927 -1.38021,-0.5013 -2.34375,-0.9961 -0.10417,-1.21093 -0.20182,-2.0442699 -0.29297,-2.4999999 -0.0781,-0.45573 -0.22786,-0.98307 -0.44922,-1.58203 l 6.3086,-4.12109 z m 662.31055,0.75195 c -0.27344,0 -0.52083,0.1237 -0.74219,0.3711 -0.22135,0.23437 -0.33203,0.55338 -0.33203,0.95703 0,0.42968 0.25391,0.87239 0.76172,1.32812 0.26042,0.23438 0.39063,0.46875 0.39063,0.70313 0,0.35156 -0.20183,0.6901 -0.60547,1.01562 -0.40365,0.3125 -0.97006,0.46875 -1.69922,0.46875 -0.66407,0 -1.36068,-0.0976 -2.08985,-0.29297 -1.01562,-0.28646 -2.35677,-0.78125 -4.02343,-1.48437 -0.70313,0.89844 -1.43881,1.60807 -2.20703,2.1289 -0.75521,0.50782 -1.80339,0.9700599 -3.14454,1.3867199 l 0,7.28516 4.27735,2.30469 -2.51953,3.33984 -1.77735,2.20703 c -0.3776,0.44271 -0.64453,0.74219 -0.80078,0.89844 -0.27344,0.26042 -0.41015,0.46875 -0.41015,0.625 0,0.14323 0.0716,0.28646 0.21484,0.42969 0.14323,0.14323 0.28646,0.21484 0.42969,0.21484 0.15625,0 0.41015,-0.13672 0.76171,-0.41016 0.95053,-0.74218 2.03777,-1.11328 3.26172,-1.11328 0.79427,0 1.54297,0.11068 2.2461,0.33203 0.71614,0.22136 1.55599,0.61849 2.51953,1.19141 1.11979,-1.02865 2.12239,-1.75781 3.00781,-2.1875 0.88542,-0.42969 1.875,-0.69661 2.96875,-0.80078 l 0,-8.22266 -4.51172,-2.36328 3.75,-4.7851499 c 0.66407,-0.84636 1.11328,-1.53646 1.34766,-2.07032 0.23437,-0.53385 0.35156,-1.08073 0.35156,-1.64062 0,-0.54688 -0.14974,-0.98307 -0.44922,-1.3086 -0.28646,-0.33854 -0.61198,-0.50781 -0.97656,-0.50781 z m -498.83398,0.43945 -5.44922,6.7382899 0,0.85937 1.8164,0 0,11.19141 c 0,0.91146 -0.11067,1.60807 -0.33203,2.08984 -0.16927,0.37761 -0.51432,0.74219 -1.03515,1.09375 l 0,0.39063 c 1.86197,0.53385 3.52864,1.54948 5,3.04687 l 4.29687,-3.4375 -0.48828,-0.58594 -1.25,0.97657 -2.1875,-1.6211 0,-13.14453 3.92578,0 0,-2.2070299 -3.92578,0 0.19531,-5.39063 -0.5664,0 z m -127.8711,1.52344 c -0.27344,0 -0.52084,0.1237 -0.74219,0.3711 -0.22136,0.23437 -0.33203,0.55338 -0.33203,0.95703 0,0.42969 0.2539,0.87239 0.76172,1.32812 0.26041,0.23438 0.39062,0.46875 0.39062,0.70313 0,0.35156 -0.20182,0.6901 -0.60547,1.0156199 -0.40364,0.3125 -0.97005,0.46875 -1.69922,0.46875 -0.66406,0 -1.36067,-0.0977 -2.08984,-0.29297 -1.01563,-0.28645 -2.35677,-0.7812499 -4.02344,-1.4843699 -0.70312,0.89844 -1.4388,1.6080699 -2.20703,2.1289099 -0.75521,0.50781 -1.80339,0.97005 -3.14453,1.38671 l 0,7.28516 4.27734,2.30469 -2.51953,3.33984 -1.77734,2.20703 c -0.37761,0.44271 -0.64453,0.74219 -0.80078,0.89844 -0.27344,0.26042 -0.41016,0.46875 -0.41016,0.625 0,0.14323 0.0716,0.28646 0.21484,0.42969 0.14323,0.14323 0.28646,0.21484 0.42969,0.21484 0.15625,0 0.41016,-0.13672 0.76172,-0.41016 0.95052,-0.74218 2.03776,-1.11328 3.26172,-1.11328 0.79427,0 1.54297,0.11068 2.24609,0.33204 0.71615,0.22135 1.55599,0.61848 2.51953,1.1914 1.1198,-1.02864 2.1224,-1.75781 3.00782,-2.1875 0.88541,-0.42969 1.875,-0.69661 2.96875,-0.80078 l 0,-8.22266 -4.51172,-2.36328 3.75,-4.78515 c 0.66406,-0.84636 1.11328,-1.5364599 1.34765,-2.0703199 0.23438,-0.53385 0.35157,-1.08073 0.35157,-1.64062 0,-0.54688 -0.14974,-0.98307 -0.44922,-1.30859 -0.28646,-0.33855 -0.61198,-0.50782 -0.97656,-0.50782 z m 18.125,0 c -0.27344,0 -0.52084,0.1237 -0.74219,0.3711 -0.22136,0.23437 -0.33203,0.55338 -0.33203,0.95703 0,0.42969 0.2539,0.87239 0.76172,1.32812 0.26041,0.23438 0.39062,0.46875 0.39062,0.70313 0,0.35156 -0.20182,0.6901 -0.60547,1.0156199 -0.40364,0.3125 -0.97005,0.46875 -1.69922,0.46875 -0.66406,0 -1.36067,-0.0977 -2.08984,-0.29297 -1.01563,-0.28645 -2.35677,-0.7812499 -4.02344,-1.4843699 -0.70312,0.89844 -1.4388,1.6080699 -2.20703,2.1289099 -0.75521,0.50781 -1.80339,0.97005 -3.14453,1.38671 l 0,7.28516 4.27734,2.30469 -2.51953,3.33984 -1.77734,2.20703 c -0.37761,0.44271 -0.64453,0.74219 -0.80078,0.89844 -0.27344,0.26042 -0.41016,0.46875 -0.41016,0.625 0,0.14323 0.0716,0.28646 0.21484,0.42969 0.14323,0.14323 0.28646,0.21484 0.42969,0.21484 0.15625,0 0.41016,-0.13672 0.76172,-0.41016 0.95052,-0.74218 2.03776,-1.11328 3.26172,-1.11328 0.79427,0 1.54297,0.11068 2.24609,0.33204 0.71615,0.22135 1.55599,0.61848 2.51953,1.1914 1.1198,-1.02864 2.1224,-1.75781 3.00782,-2.1875 0.88541,-0.42969 1.875,-0.69661 2.96875,-0.80078 l 0,-8.22266 -4.51172,-2.36328 3.75,-4.78515 c 0.66406,-0.84636 1.11328,-1.5364599 1.34765,-2.0703199 0.23438,-0.53385 0.35156,-1.08073 0.35156,-1.64062 0,-0.54688 -0.14974,-0.98307 -0.44921,-1.30859 -0.28646,-0.33855 -0.61198,-0.50782 -0.97656,-0.50782 z m 476.70508,1.10352 -3.4375,2.87109 1.46484,1.5039099 0,10.89844 c 0,1.64062 0.14974,2.79296 0.44922,3.45703 0.29948,0.65104 0.97005,1.34765 2.01172,2.08984 l 4.43359,-3.39844 -0.46874,-0.60547 c -0.57292,0.42969 -0.95053,0.69011 -1.13282,0.78125 -0.13021,0.0651 -0.27344,0.0977 -0.42968,0.0977 -0.22136,0 -0.4362,-0.16927 -0.64454,-0.50781 -0.20833,-0.33854 -0.3125,-1.06771 -0.3125,-2.1875 l 0,-10.625 1.54297,-1.5039099 -3.47656,-2.87109 z m 16.03516,0 c -2.16146,1.10677 -3.53516,1.79687 -4.1211,2.07031 -0.80729,0.36458 -1.82291,0.76823 -3.04687,1.2109399 l 0,11.17187 c 0,1.27604 -0.0781,2.10938 -0.23438,2.5 -0.14323,0.37761 -0.4362,0.69662 -0.8789,0.95703 l 0,0.48829 c 1.53645,0.32552 2.72135,0.63802 3.55468,0.9375 0.83334,0.29947 1.89454,0.79427 3.1836,1.48437 l 6.32812,-4.41406 -0.42968,-0.58594 -3.06641,2.08984 -4.53125,-1.79687 0,-3.55469 8.75,-6.13281 -5.50781,-6.4257799 z m 11.1914,0 -4.12109,3.5351499 0.46875,0.56641 c 0.52083,-0.52083 0.93099,-0.78125 1.23047,-0.78125 0.27344,0 0.52083,0.16927 0.74218,0.50781 0.23438,0.32552 0.35157,0.98959 0.35157,1.99219 l 0,7.96875 c 0,1.15885 -0.0912,1.94662 -0.27344,2.36328 -0.16927,0.40365 -0.54036,0.80729 -1.11328,1.21094 l 0,0.42969 c 0.85937,0.23437 1.64713,0.55989 2.36328,0.97656 0.72917,0.41667 1.6276,1.10026 2.69531,2.05078 l 5,-4.00391 -0.44922,-0.625 -2.01172,1.60157 -2.22656,-1.60157 0,-11.38671 1.9336,-1.7578199 2.46093,3.1054699 2.94922,-2.61719 -2.94922,-3.5351499 -4.39453,3.8281199 c 0,-0.6901 -0.13021,-1.2304699 -0.39062,-1.6210899 -0.40365,-0.625 -1.15886,-1.36068 -2.26563,-2.20703 z m 47.63672,0 c -2.16146,1.10677 -3.53515,1.79687 -4.12109,2.07031 -0.80729,0.36458 -1.82292,0.76823 -3.04688,1.2109399 l 0,11.17187 c 0,1.27604 -0.0781,2.10938 -0.23437,2.5 -0.14323,0.37761 -0.4362,0.69662 -0.87891,0.95703 l 0,0.48829 c 1.53646,0.32552 2.72136,0.63802 3.55469,0.9375 0.83333,0.29947 1.89453,0.79427 3.18359,1.48437 l 6.32813,-4.41406 -0.42969,-0.58594 -3.06641,2.08984 -4.53125,-1.79687 0,-3.55469 8.75,-6.13281 -5.50781,-6.4257799 z m 11.19141,0 -4.1211,3.5351499 0.46875,0.56641 c 0.52084,-0.52083 0.93099,-0.78125 1.23047,-0.78125 0.27344,0 0.52084,0.16927 0.74219,0.50781 0.23437,0.32552 0.35156,0.98959 0.35156,1.99219 l 0,7.96875 c 0,1.15885 -0.0911,1.94662 -0.27343,2.36328 -0.16928,0.40365 -0.54037,0.80729 -1.11329,1.21094 l 0,0.42969 c 0.85938,0.23437 1.64714,0.55989 2.36329,0.97656 0.72916,0.41667 1.6276,1.10026 2.69531,2.05078 l 5,-4.00391 -0.44922,-0.625 -2.01172,1.60157 -2.22656,-1.60157 0,-11.38671 1.93359,-1.7578199 2.46094,3.1054699 2.94922,-2.61719 -2.94922,-3.5351499 -4.39453,3.8281199 c 0,-0.6901 -0.13021,-1.2304699 -0.39063,-1.6210899 -0.40364,-0.625 -1.15885,-1.36068 -2.26562,-2.20703 z m -602.60352,1.96289 -3.4375,2.8710899 1.46484,1.50391 0,10.89844 c 0,1.64062 0.14974,2.79297 0.44922,3.45703 0.29948,0.65104 0.97005,1.34765 2.01172,2.08984 l 4.43359,-3.39844 -0.46875,-0.60546 c -0.57292,0.42968 -0.95052,0.6901 -1.13281,0.78124 -0.13021,0.0651 -0.27344,0.0977 -0.42969,0.0977 -0.22135,0 -0.4362,-0.16927 -0.64453,-0.50781 -0.20833,-0.33854 -0.3125,-1.06771 -0.3125,-2.1875 l 0,-10.625 1.54297,-1.50391 -3.47656,-2.8710899 z m 52.28515,0 c -2.16146,1.1067699 -3.53516,1.7968699 -4.1211,2.0703099 -0.80729,0.36458 -1.82291,0.76823 -3.04687,1.21094 l 0,11.17187 c 0,1.27605 -0.0781,2.10938 -0.23438,2.5 -0.14322,0.37761 -0.43619,0.69662 -0.8789,0.95703 l 0,0.48829 c 1.53646,0.32552 2.72135,0.63802 3.55469,0.9375 0.83333,0.29948 1.89453,0.79427 3.18359,1.48437 l 6.32812,-4.41406 -0.42968,-0.58594 -3.06641,2.08984 -4.53125,-1.79687 0,-3.55469 8.75,-6.13281 -5.50781,-6.4257799 z m 11.05469,0 -4.16016,3.3203099 0.46875,0.54688 c 0.52083,-0.40365 0.91146,-0.60547 1.17187,-0.60547 0.2474,0 0.46875,0.16927 0.66407,0.50781 0.28646,0.49479 0.42968,1.45182 0.42968,2.87109 l 0,9.98047 -1.52343,1.40625 3.47656,2.79297 3.45703,-2.79297 -1.40625,-1.40625 0,-11.11328 3.16406,-2.51953 2.12891,1.83594 0,10.76172 c 0,1.40625 0.14974,2.42838 0.44922,3.0664 0.3125,0.625 1.00911,1.34766 2.08984,2.16797 l 4.19922,-3.4375 -0.46875,-0.60547 c -0.67708,0.50781 -1.10677,0.76172 -1.28906,0.76172 -0.20834,0 -0.39714,-0.13672 -0.56641,-0.41015 -0.27344,-0.41667 -0.41015,-1.05469 -0.41015,-1.91407 l 0,-9.27734 c 0,-1.00261 0.1302,-1.79037 0.39062,-2.36328 0.19531,-0.42969 0.7487,-1.0612 1.66016,-1.89453 l -0.54688,-0.52735 -1.89453,1.83594 -3.20312,-2.9882799 -5.70313,4.5312499 0,-0.66406 c 0,-0.83334 -0.14323,-1.48438 -0.42969,-1.95313 -0.28646,-0.46875 -1.0026,-1.1067699 -2.14843,-1.9140599 z m 40.13671,0 -4.12109,3.5351499 0.46875,0.56641 c 0.52083,-0.52083 0.93099,-0.78125 1.23047,-0.78125 0.27344,0 0.52083,0.16927 0.74219,0.50781 0.23437,0.32552 0.35156,0.98959 0.35156,1.99219 l 0,7.96875 c 0,1.15886 -0.0912,1.94662 -0.27344,2.36328 -0.16927,0.40365 -0.54036,0.80729 -1.11328,1.21094 l 0,0.42969 c 0.85938,0.23437 1.64714,0.55989 2.36328,0.97656 0.72917,0.41667 1.62761,1.10026 2.69531,2.05078 l 5,-4.0039 -0.44921,-0.625 -2.01172,1.60156 -2.22657,-1.60156 0,-11.38672 1.9336,-1.75782 2.46094,3.10547 2.94921,-2.61719 -2.94921,-3.5351499 -4.39454,3.8281199 c 0,-0.6901 -0.1302,-1.23047 -0.39062,-1.62109 -0.40365,-0.625 -1.15885,-1.3606799 -2.26563,-2.2070299 z m 18.94533,0 c -1.17188,1.2239599 -2.52604,1.8359399 -4.0625,1.8359399 -0.2474,0 -0.625,-0.026 -1.13282,-0.0781 l -0.27343,0.54688 2.34375,5 c -1.5625,1.82291 -2.66276,3.41796 -3.30079,4.78515 -0.48178,1.04167 -0.72266,2.15495 -0.72266,3.33985 0,1.77083 1.11328,3.5677 3.33985,5.39062 l 5.9375,-4.6875 c 0.0391,1.10677 0.22787,1.97266 0.56641,2.59766 0.33854,0.61198 1.00911,1.30859 2.01172,2.08984 l 4.35547,-3.59375 -0.42969,-0.64453 c -0.50781,0.40365 -0.8138,0.63802 -0.91797,0.70312 -0.16927,0.0781 -0.33203,0.11719 -0.48828,0.11719 -0.29948,0 -0.5599,-0.16927 -0.78125,-0.50781 -0.20833,-0.35156 -0.3125,-1.21745 -0.3125,-2.59766 l 0,-8.32031 c 0,-0.98958 0.0911,-1.77083 0.27344,-2.34375 0.19531,-0.58594 0.64453,-1.42578 1.34765,-2.51953 l -0.70312,-0.2734399 c -0.33854,0.4817699 -0.57943,0.7747399 -0.72266,0.8789099 -0.14323,0.0911 -0.35156,0.13672 -0.625,0.13672 -0.59896,0 -1.46484,-0.16927 -2.59765,-0.50782 -1.1198,-0.3385399 -2.15495,-0.7877599 -3.10547,-1.3476499 z m 407.19336,0.2832 4.86328,5.3906299 -5.13672,3.59375 0,-8.8476599 0.27344,-0.13672 z m 58.82812,0 4.86328,5.3906299 -5.13672,3.59375 0,-8.8476599 0.27344,-0.13672 z m 50.23438,0.8398499 c 1.51041,1.0677 3.0664,1.60156 4.66796,1.60156 0.63803,0 1.39323,-0.1237 2.26563,-0.3711 l -4.25781,5.66407 -2.67578,-1.38672 0,-5.50781 z m -73.8086,0.0391 c 0.83334,0.53385 1.36719,1.02864 1.60156,1.48437 0.23438,0.45573 0.35157,1.24349 0.35157,2.36328 l 0,10.64454 -4.92188,-2.05079 0,-10 2.96875,-2.4414 z m 9.02344,0.0195 c 0.89844,0.6901 1.4388,1.21745 1.62109,1.58203 0.19532,0.35156 0.29297,1.00912 0.29297,1.97266 l 0,10.85937 -4.96094,-2.08984 0,-9.76563 3.04688,-2.55859 z m 50.27344,0.0781 2.89062,3.14454 -6.42578,5.48828 0,-5.21485 3.53516,-3.41797 z m -121.81641,0.95704 c 1.11979,0.48177 1.88151,0.99609 2.28516,1.54296 0.40364,0.54688 0.60547,1.26954 0.60547,2.16797 -1.06771,0.37761 -2.03125,0.56641 -2.89063,0.56641 -0.85937,0 -1.82292,-0.1888 -2.89062,-0.56641 l 0,-1.89453 c 0.50781,-0.27344 1.47135,-0.8789 2.89062,-1.8164 z m -453.03321,0.0293 4.86328,5.39063 -5.13672,3.59375 0,-8.84766 0.27344,-0.13672 z m 68.5547,0.27344 6.67968,2.05078 0,5 -4.29687,-2.01172 -2.38281,-5.03906 z m -105.89845,0.56641 c 1.51042,1.0677 3.06641,1.60156 4.66797,1.60156 0.63802,0 1.39323,-0.1237 2.26563,-0.37109 l -4.25782,5.66406 -2.67578,-1.38672 0,-5.50781 z m 18.125,0 c 1.51042,1.0677 3.06641,1.60156 4.66797,1.60156 0.63802,0 1.39323,-0.1237 2.26563,-0.37109 l -4.25782,5.66406 -2.67578,-1.38672 0,-5.50781 z m 59.47265,0.13671 2.89063,3.14454 -6.42578,5.48828 0,-5.21485 3.53515,-3.41797 z m -113.16405,0.13672 c 0.026,0.50782 0.0391,0.89193 0.0391,1.15235 0,1.88802 -0.32552,3.84114 -0.97656,5.85937 -0.98959,-0.61198 -1.84896,-1.03515 -2.57813,-1.26953 -0.72917,-0.23437 -1.52344,-0.35156 -2.38281,-0.35156 -0.5599,0 -1.17188,0.0846 -1.83594,0.25391 -0.66406,0.15624 -1.38021,0.39713 -2.14844,0.72265 0.66407,-2.09635 0.9961,-4.00391 0.9961,-5.72265 l 0,-0.50782 c 0.7552,0.40365 1.48437,0.70964 2.1875,0.91797 0.71614,0.19531 1.40625,0.29297 2.07031,0.29297 0.74219,0 1.43229,-0.0911 2.07031,-0.27344 0.65104,-0.18229 1.50391,-0.54036 2.5586,-1.07422 z m 4.17968,0.13672 c 0.74219,0.35156 1.46485,0.61849 2.16797,0.80078 0.70313,0.16927 1.38021,0.25391 2.03125,0.25391 0.69011,0 1.32813,-0.0651 1.91406,-0.19531 0.59896,-0.14323 1.39323,-0.42969 2.38282,-0.85938 0.013,0.23438 0.0195,0.41016 0.0195,0.52735 0,1.78385 -0.45573,3.91276 -1.36719,6.38671 -0.89844,-0.59895 -1.74479,-1.02213 -2.53906,-1.26953 -0.79427,-0.26041 -1.67969,-0.39062 -2.65625,-0.39062 -0.49479,0 -1.02214,0.0521 -1.58203,0.15625 -0.54688,0.10417 -1.1198,0.26693 -1.71875,0.48828 0.52083,-1.23698 0.86588,-2.23307 1.03515,-2.98828 0.16927,-0.75521 0.27344,-1.72526 0.3125,-2.91016 z m 518.87306,3.29102 c 1.02864,0.3776 1.99218,0.5664 2.89062,0.5664 0.83333,0 1.79688,-0.1888 2.89063,-0.5664 l 0,3.47656 c -1.13282,-0.36458 -2.1224,-0.54687 -2.96875,-0.54687 -0.8724,0 -1.8099,0.18229 -2.8125,0.54687 l 0,-3.47656 z m -379.63477,1.37695 4.72656,2.20703 0,4.80469 -2.94922,2.38281 c -1.91406,-1.36718 -2.87109,-3.10547 -2.87109,-5.21484 0,-1.19792 0.36458,-2.59115 1.09375,-4.17969 z m 522.21289,0.24414 2.91016,1.5625 0,5.66406 c -1.61459,-0.98958 -3.17058,-1.48437 -4.66797,-1.48437 -0.40365,0 -0.85287,0.0456 -1.34766,0.13672 -0.49479,0.0911 -1.02864,0.23437 -1.60156,0.42969 l 4.70703,-6.3086 z m -19.10156,0.46875 c 1.5625,0.92448 2.51302,2.48047 2.85156,4.66797 l -2.85156,2.34375 -2.30469,-1.60156 0,-3.37891 2.30469,-2.03125 z m -640.37696,0.79102 c 0.89844,0 1.69922,0.13021 2.40234,0.39062 0.71615,0.2474 1.51042,0.69011 2.38282,1.32813 -0.85938,1.74479 -1.90756,3.41797 -3.14454,5.01953 -1.13281,-0.44271 -2.15494,-0.66406 -3.0664,-0.66406 -1.1849,0 -2.44792,0.20833 -3.78906,0.625 -1.34115,0.41666 -3.03386,1.17187 -5.07813,2.26562 1.75781,-1.80989 3.09245,-3.30729 4.00391,-4.49219 0.92448,-1.18489 1.71875,-2.38932 2.38281,-3.61328 0.70312,-0.28646 1.38021,-0.5013 2.03125,-0.64453 0.65104,-0.14323 1.27604,-0.21484 1.875,-0.21484 z m -11.85547,0.0391 c 0.74219,0 1.42578,0.11719 2.05078,0.35156 0.625,0.22136 1.42578,0.66406 2.40235,1.32813 -0.67709,1.66666 -1.52344,3.28125 -2.53907,4.84375 -0.78125,-0.11719 -1.46484,-0.17578 -2.05078,-0.17578 -1.23698,0 -2.51302,0.20182 -3.82812,0.60546 -1.31511,0.39063 -2.95573,1.10678 -4.92188,2.14844 1.01563,-1.43229 1.83594,-2.72786 2.46094,-3.88672 0.625,-1.15885 1.23047,-2.48046 1.81641,-3.96484 0.87239,-0.41667 1.6927,-0.72917 2.46093,-0.9375 0.76823,-0.20833 1.48438,-0.3125 2.14844,-0.3125 z m 44.62891,0.66406 2.91015,1.5625 0,5.66406 c -1.61458,-0.98958 -3.17057,-1.48437 -4.66797,-1.48437 -0.40364,0 -0.85286,0.0456 -1.34765,0.13672 -0.49479,0.0911 -1.02865,0.23437 -1.60156,0.42969 l 4.70703,-6.3086 z m 18.125,0 2.91015,1.5625 0,5.66406 c -1.61458,-0.98958 -3.17057,-1.48437 -4.66797,-1.48437 -0.40364,0 -0.85286,0.0456 -1.34765,0.13672 -0.49479,0.0911 -1.02865,0.23437 -1.60156,0.42969 l 4.70703,-6.3086 z m 468.73633,0.14649 c 0.83333,0 1.84896,0.21484 3.04688,0.64453 l 0,2.69531 c -1.47136,0.39063 -2.8711,0.93099 -4.19922,1.62109 -0.49479,-0.3125 -1.02214,-0.59244 -1.58203,-0.83984 l 0,-3.47656 c 0.95052,-0.42969 1.86198,-0.64453 2.73437,-0.64453 z m -413.85352,0.32226 c 1.5625,0.92448 2.51302,2.48047 2.85156,4.66797 l -2.85156,2.34375 -2.30469,-1.60156 0,-3.37891 2.30469,-2.03125 z m 283.78516,26.46289 a 9.793479,9.793479 0 0 1 1.66211,0.17383 9.793479,9.793479 0 0 1 7.76367,11.46875 9.793479,9.793479 0 0 1 -11.46875,7.76563 9.793479,9.793479 0 0 1 -7.76367,-11.46875 9.793479,9.793479 0 0 1 9.80664,-7.93946 z"
       id="rect4537-2-9"
       inkscape:connector-curvature="0" />
    <text
       xml:space="preserve"
       style="font-style:normal;font-weight:normal;font-size:40px;line-height:125%;font-family:Sans;letter-spacing:0px;word-spacing:0px;fill:#ffffff;fill-opacity:1;stroke:none;stroke-width:1px;stroke-linecap:butt;stroke-linejoin:miter;stroke-opacity:1"
       x="539.10645"
       y="581.33118"
       id="text4216-7"
       sodipodi:linespacing="125%"
       inkscape:export-xdpi="90"
       inkscape:export-ydpi="90"><tspan
         sodipodi:role="line"
         id="tspan4218-0"
         x="539.10645"
         y="581.33118"
         style="font-style:normal;font-variant:normal;font-weight:normal;font-stretch:normal;font-family:'Old English Text MT';-inkscape-font-specification:'Old English Text MT'">Bierwerks</tspan></text>
  </g>
</svg>
